<svg id="linkedin-groot-zonder-kader" xmlns="http://www.w3.org/2000/svg" width="43.235" height="40.833" viewBox="0 0 43.235 40.833">
  <path id="Path" d="M8.647,0H0V27.939H8.647Z" transform="translate(2.162 12.895)" fill="#fff"/>
  <path id="Path-2" data-name="Path" d="M10.809,5.371A5.169,5.169,0,0,0,5.436,0,5.185,5.185,0,0,0,0,5.371a5.155,5.155,0,0,0,5.311,5.375h.061A5.187,5.187,0,0,0,10.809,5.371Z" transform="translate(0 0)" fill="#fff"/>
  <path id="Path-3" data-name="Path" d="M28.1,12.287C28.1,3.9,23.562,0,17.5,0a9.16,9.16,0,0,0-8.3,4.508V.642H0c.121,2.561,0,27.3,0,27.3H9.207V12.694a6.13,6.13,0,0,1,.3-2.214,5.031,5.031,0,0,1,4.723-3.317c3.332,0,4.665,2.5,4.665,6.171v14.6H28.1Z" transform="translate(15.132 12.895)" fill="#fff"/>
</svg>
